<?xml version="1.0" encoding="UTF-8"?>
<svg width="32px" height="32px" viewBox="0 0 32 32" version="1.1" xmlns="http://www.w3.org/2000/svg" xmlns:xlink="http://www.w3.org/1999/xlink">
    <title>7D44EF92-7A36-45AD-BB2E-E135D7D8B684@1x</title>
    <g id="Component-Dev-June/july-" stroke="none" stroke-width="1" fill="none" fill-rule="evenodd">
        <g id="Componnet-Development--mobile-" transform="translate(-327.000000, -1627.000000)">
            <g id="card/group-websites/mobile/wayfinding-card/default" transform="translate(152.000000, 1579.000000)">
                <g id="circle/1-circle+icon/medium/filled" transform="translate(159.000000, 32.000000)">
                    <g id="icon/transactions" transform="translate(16.000000, 16.000000)">
                        <rect id="Rectangle" x="0" y="0" width="32" height="32"></rect>
                        <path d="M6.66666667,30.6666667 C4.45752767,30.6666667 2.66666667,28.8758057 2.66666667,26.6666667 L2.66666667,26.6666667 L2.66666667,12 C2.66666667,11.5885461 2.85663046,11.2001386 3.18141252,10.9475304 L3.18141252,10.9475304 L15.1814125,1.61419704 C15.6628932,1.2397121 16.3371068,1.2397121 16.8185875,1.61419704 L16.8185875,1.61419704 L28.8185875,10.9475304 C29.1433695,11.2001386 29.3333333,11.5885461 29.3333333,12 L29.3333333,12 L29.3333333,26.6666667 C29.3333333,28.8758057 27.5424723,30.6666667 25.3333333,30.6666667 L25.3333333,30.6666667 Z M16,4.35466667 L5.33333333,12.6506667 L5.33333333,26.6666667 C5.33333333,27.3504478 5.84805359,27.9140095 6.51117183,27.9910297 L6.51117183,27.9910297 L6.66666667,28 L10.6666667,27.9993333 L10.6666667,16 C10.6666667,15.3162189 11.1813869,14.7526571 11.8445052,14.675637 L12,14.6666667 L20,14.6666667 C20.6837811,14.6666667 21.2473429,15.1813869 21.324363,15.8445052 L21.3333333,16 L21.3326667,27.9993333 L25.3333333,28 C26.0263965,28 26.5959544,27.4712106 26.660563,26.7950756 L26.6666667,26.6666667 L26.6666667,12.652 L16,4.35466667 Z M18.6666667,17.3333333 L13.3333333,17.3333333 L13.3326667,27.9993333 L18.6666667,27.9993333 L18.6666667,17.3333333 Z" id="Combined-Shape" fill="#7F2B7B"></path>
                    </g>
                </g>
            </g>
        </g>
    </g>
</svg>